<svg xmlns="http://www.w3.org/2000/svg" viewBox="0 0 512 512">
<path fill="#00d26a" d="M41 50 L29 63 L21 83 L19 101 L21 136 L26 146 L31 151 L38 154 L87 154 L93 158 L95 273 L102 296 L113 315 L120 324 L140 343 L166 358 L187 365 L210 370 L240 374 L263 374 L269 382 L280 391 L312 406 L309 411 L259 460 L256 465 L256 469 L260 474 L324 475 L333 471 L340 462 L340 375 L389 368 L411 361 L428 353 L447 340 L463 324 L473 310 L481 294 L486 280 L491 254 L491 214 L488 194 L482 173 L470 152 L463 145 L457 146 L458 172 L453 200 L442 225 L425 246 L409 258 L386 268 L366 272 L341 272 L337 254 L329 236 L319 222 L307 210 L294 201 L281 195 L261 190 L241 189 L239 187 L238 84 L230 63 L215 47 L202 40 L185 36 L86 36 L63 39 Z"/>
<path fill="#008462" d="M148 349 L154 363 L171 384 L186 395 L197 400 L207 402 L211 405 L194 425 L156 462 L155 471 L160 475 L229 474 L236 467 L239 458 L239 374 L210 371 L187 366 L166 359 Z M202 225 L198 223 L148 223 L141 227 L138 232 L138 284 L147 289 L158 285 L203 239 L205 229 Z M93 222 L63 222 L54 230 L54 283 L60 289 L69 290 L74 288 L94 268 Z"/>
<path fill="#282828" d="M148 57 L140 57 L126 70 L124 77 L127 82 L136 83 L150 70 L152 62 Z"/>
</svg>